<?xml version="1.0" encoding="UTF-8"?>
<svg width="149px" height="46px" viewBox="0 0 149 46" version="1.1" xmlns="http://www.w3.org/2000/svg" xmlns:xlink="http://www.w3.org/1999/xlink">
    <!-- Generator: Sketch 49.1 (51147) - http://www.bohemiancoding.com/sketch -->
    <title>SIFOCC logo</title>
    <desc>Created with Sketch.</desc>
    <defs>
        <filter x="-0.5%" y="-1.2%" width="101.0%" height="103.4%" filterUnits="objectBoundingBox" id="filter-1">
            <feOffset dx="0" dy="2" in="SourceAlpha" result="shadowOffsetOuter1"></feOffset>
            <feGaussianBlur stdDeviation="2" in="shadowOffsetOuter1" result="shadowBlurOuter1"></feGaussianBlur>
            <feColorMatrix values="0 0 0 0 0   0 0 0 0 0   0 0 0 0 0  0 0 0 0.5 0" type="matrix" in="shadowBlurOuter1" result="shadowMatrixOuter1"></feColorMatrix>
            <feMerge>
                <feMergeNode in="shadowMatrixOuter1"></feMergeNode>
                <feMergeNode in="SourceGraphic"></feMergeNode>
            </feMerge>
        </filter>
    </defs>
    <g id="Site-look-and-feel" stroke="none" stroke-width="1" fill="none" fill-rule="evenodd">
        <g id="Desktop-homepage" transform="translate(-644.000000, -56.000000)" fill="#FFFFFF">
            <g id="Header" filter="url(#filter-1)">
                <g id="Logo-and-text" transform="translate(254.000000, 58.000000)">
                    <g id="SIFOCC-logo" transform="translate(394.000000, 0.000000)">
                        <path d="M71.4004963,33.9227239 C71.244343,33.6564201 71.074501,33.4002562 70.8919842,33.1531647 C70.8833654,33.1419575 70.8737325,33.1323514 70.8656207,33.1211442 C70.6957786,32.8927313 70.5157968,32.6712563 70.3236471,32.4609884 C70.4133846,32.3686626 70.4945031,32.2693991 70.5801847,32.1733376 C70.6379816,32.1087629 70.6978066,32.0452556 70.7540826,31.9785463 C70.9269666,31.7720141 71.0912317,31.5580105 71.2438361,31.3365354 C71.2534689,31.3231935 71.2646227,31.3098516 71.2742555,31.2959761 C71.4334507,31.0616928 71.5784502,30.8172697 71.7148308,30.5675099 C71.7579251,30.488526 71.7964564,30.4052727 71.8370157,30.3246878 C71.8958267,30.207813 71.9592006,30.0941402 72.0129416,29.9751308 L74.1783008,30.943217 C73.5830932,32.2229694 72.6116982,33.2641691 71.4004963,33.9227239 Z M68.039652,34.1217846 C68.1157007,34.0844274 68.1902284,34.0449354 68.2652631,34.0043761 C68.5415733,33.8570819 68.8112926,33.6953784 69.070872,33.5155299 C69.1012915,33.4947166 69.1327249,33.4771053 69.1626374,33.4557584 C69.3826716,33.2993916 69.5956079,33.132885 69.8019533,32.954104 C69.988019,33.1569004 70.1750987,33.3586295 70.3393639,33.5795709 C70.3540666,33.5993169 70.3657274,33.6211976 70.3804301,33.6409435 C70.5163038,33.8271961 70.6318977,34.0283915 70.7515477,34.2269186 C69.590031,34.6917494 68.327623,34.7904792 67.128082,34.513502 C67.4403885,34.4046323 67.7425552,34.2690789 68.039652,34.1217846 Z M65.6770733,22.0580638 C65.8266357,22.3227666 65.9903939,22.5778632 66.1653058,22.8238873 C66.1769666,22.8398975 66.1906554,22.8543068 66.2023161,22.8697833 C66.3635393,23.0939268 66.5333814,23.3116661 66.7153912,23.518732 C66.6246398,23.6105241 66.5425072,23.7092539 66.4563187,23.8053154 C66.3934518,23.8746931 66.32805,23.9430035 66.267211,24.0139823 C66.0872292,24.2269186 65.9158662,24.4457253 65.7576849,24.6752055 C65.751094,24.6848116 65.7429822,24.6933504 65.7368983,24.7034902 C65.5731401,24.9415092 65.4250987,25.1902017 65.2851692,25.4447646 C65.2415679,25.5258832 65.2020226,25.6102039 65.1599424,25.6934571 C65.1006244,25.811933 65.0352225,25.9282741 64.9804675,26.049952 L62.8140944,25.0829331 C63.4255257,23.7700929 64.4263262,22.7118156 65.6770733,22.0580638 Z M68.9775857,21.8920909 C68.903058,21.9283808 68.8305582,21.9673391 68.7570445,22.0057637 C68.4807343,22.1519906 68.211522,22.3110257 67.9524496,22.4887395 C67.925072,22.5074181 67.8961736,22.5234283 67.86981,22.5421069 C67.6528178,22.6942043 67.4429235,22.8564415 67.240127,23.0298858 C67.0621731,22.8281567 66.8826983,22.6280286 66.725024,22.4086882 C66.7128562,22.3905433 66.7022094,22.3718647 66.6900416,22.353186 C66.5577169,22.1658662 66.4456719,21.9636034 66.3290639,21.7634753 C67.4799338,21.3194578 68.6992475,21.2351372 69.871411,21.5099797 C69.5651884,21.6167147 69.2685986,21.7490661 68.9775857,21.8920909 Z M64.7127762,26.7138435 C64.6686679,26.8371224 64.6362205,26.9620023 64.5976892,27.0863486 C64.5682837,27.1802754 64.5358363,27.2742022 64.5099797,27.3691963 C64.4329171,27.6499093 64.3659942,27.934358 64.3173231,28.2220088 C64.3142811,28.2390863 64.3132672,28.2556303 64.3112392,28.2727079 C64.266117,28.5459494 64.2351905,28.8218593 64.2154179,29.0999039 C64.207813,29.1991675 64.206799,29.3005657 64.2032501,29.4003629 C64.1981802,29.5295122 64.1875334,29.6570605 64.1880403,29.7862098 C63.6075355,29.799018 63.0321005,29.8753335 62.4678194,30.0151564 C62.0465098,28.6131924 62.0733803,27.1205038 62.546403,25.7468246 L64.7127762,26.7138435 Z M66.0532608,29.968193 C66.0517398,29.968193 66.0507258,29.9676593 66.0492048,29.9676593 C65.7064788,29.8924111 65.3581759,29.8481161 65.007338,29.8198314 C64.9657648,29.8166293 64.9252055,29.8043548 64.8836322,29.8016864 C64.8831252,29.6698687 64.8816042,29.5375173 64.8871811,29.406767 C64.8907301,29.3288505 64.8907301,29.2498666 64.8958,29.17195 C64.9150656,28.8992422 64.9444711,28.6292027 64.9895933,28.3623652 C64.9926353,28.3426193 64.9987192,28.3239407 65.0017611,28.3041947 C65.0453624,28.0581706 65.1011314,27.8142811 65.1670402,27.5735938 C65.1888409,27.4930089 65.2152044,27.4145587 65.23954,27.3350411 C65.2735084,27.2224357 65.3145747,27.1114313 65.35412,26.9998933 L67.7116288,28.0533675 L68.0472569,28.2033301 L67.1975398,30.3124133 C67.1554595,30.296403 67.1118583,30.2894653 67.069778,30.2739887 C66.7356708,30.1517771 66.3975077,30.0439748 66.0532608,29.968193 Z M70.8945192,26.0777031 C70.9102359,26.0819725 70.9259526,26.0873092 70.9421763,26.0910449 C71.2879443,26.1732309 71.6423311,26.22393 71.9997598,26.2596862 C72.0367702,26.2634219 72.0727666,26.2740954 72.1097769,26.2767638 C72.1097769,26.4043121 72.1097769,26.5318604 72.1042,26.658875 C72.1001441,26.7389262 72.0991301,26.8195112 72.0935532,26.8995624 C72.0732736,27.1658662 72.0438681,27.4300352 71.9987459,27.6910022 C71.9941829,27.7166186 71.9870851,27.7417014 71.9820152,27.7673178 C71.9394279,28.0021347 71.8856868,28.2348169 71.8228199,28.4648308 C71.8005123,28.5480841 71.7726278,28.6297364 71.7472783,28.7119223 C71.7148308,28.8181236 71.6768065,28.9211229 71.6397961,29.0251895 L68.9451382,27.8228199 L69.7913064,25.7244103 C69.8313587,25.7404205 69.87496,25.7484257 69.9155193,25.7639022 C70.2354307,25.8877148 70.560919,25.9965845 70.8945192,26.0777031 Z M68.3078504,23.1029993 C68.5699648,22.9220835 68.841712,22.7593126 69.1215711,22.6146867 C69.1910289,22.5783968 69.2625147,22.5501121 69.3324795,22.5170242 C69.5514996,22.4118903 69.7740687,22.3168961 70.0017078,22.2347102 C70.0975291,22.1994877 70.1938574,22.1669335 70.2911997,22.1359804 C70.3657274,22.1124987 70.4427901,22.0980894 70.5188387,22.0767424 L70.3373359,22.5266304 L70.3378429,22.5266304 L69.6554328,24.2183798 L69.4364126,24.7600598 C69.4014302,24.7419148 69.3659409,24.7248372 69.3309585,24.7056249 C69.0647881,24.5626001 68.8036877,24.4078343 68.556783,24.2333227 C68.5486711,24.2279859 68.5405593,24.2231828 68.5329544,24.2178461 C68.2784449,24.0369303 68.0386381,23.8336002 67.8054221,23.6195965 C67.7821005,23.5987832 67.7602999,23.5769026 67.7374853,23.5550219 C67.868289,23.4456185 67.9980788,23.3340805 68.1349664,23.2342833 C68.1932704,23.1915893 68.2490394,23.1440922 68.3078504,23.1029993 Z M65.8839257,25.795389 C66.0005337,25.5813854 66.1262675,25.3743196 66.2616341,25.1741915 C66.2748159,25.1544455 66.2854627,25.1336322 66.2986445,25.1144199 C66.4492208,24.8956132 66.612979,24.6864126 66.784849,24.4841499 C66.8365621,24.4238446 66.8918241,24.3667414 66.9450582,24.3075035 C67.0297257,24.2141104 67.1194631,24.124453 67.2086936,24.0342619 C67.240634,24.0646814 67.2771374,24.0881631 67.3095848,24.1180489 C67.5711922,24.3619383 67.8419255,24.5940869 68.1288825,24.7995517 C68.1314174,24.8016864 68.1344594,24.8038211 68.1369943,24.8064895 C68.4295282,25.0151564 68.7377788,25.1960722 69.0541413,25.3647134 C69.0921657,25.3849931 69.1266411,25.4127442 69.1651724,25.4324901 L68.3154552,27.5405059 L65.6213043,26.3365354 C65.6679475,26.2335361 65.7135767,26.1300032 65.7647828,26.028605 C65.8043281,25.9512221 65.8418454,25.8717046 65.8839257,25.795389 Z M65.5929128,33.1681076 C65.4915146,32.93756 65.4007632,32.7027431 65.3201516,32.4636567 C65.294802,32.3884086 65.2648895,32.3142278 65.2420749,32.2384459 C65.1462536,31.9246451 65.068177,31.6044402 65.009873,31.2794322 C64.9971982,31.2105881 64.9911143,31.140143 64.9804675,31.0702316 C64.953597,30.8935852 64.9394012,30.7137368 64.9236845,30.5349557 C64.954104,30.5376241 64.9840164,30.5392251 65.0144359,30.5413598 C65.3216725,30.5696446 65.6263742,30.6102039 65.926513,30.6763795 C65.9371598,30.6795816 65.9472996,30.6833173 65.9579464,30.685452 C66.2479454,30.751094 66.5328744,30.8407514 66.8147614,30.9421496 C66.8522788,30.9554915 66.8897961,30.9709681 66.9273135,30.9848436 L65.926513,33.4637635 L65.8418454,33.6649589 C65.8043281,33.5939801 65.7617408,33.5262034 65.7267585,33.4541573 C65.6801153,33.3596969 65.6355001,33.2652364 65.5929128,33.1681076 Z M68.7174992,32.9002028 C68.4528498,33.085388 68.1775536,33.2518945 67.8936386,33.4002562 C67.8267158,33.434945 67.756244,33.4632298 67.6878002,33.4963176 C67.4642171,33.6046536 67.2355641,33.7028498 67.0018412,33.7877041 C66.9060199,33.8234603 66.8096915,33.8554808 66.7128562,33.886434 C66.6347796,33.9115167 66.553661,33.9269933 66.4745704,33.9488739 L66.5490981,33.7631551 L66.6601291,33.5011207 L66.6555662,33.4995197 L67.5605454,31.2554168 C67.5985698,31.2735617 67.6365941,31.292774 67.6736044,31.3119863 C67.925072,31.4411357 68.1699488,31.5814922 68.4062066,31.7394599 C68.4345981,31.7581385 68.4640036,31.7741488 68.4918881,31.7933611 C68.7479187,31.9694738 68.9917814,32.1674672 69.2290533,32.3777351 C69.2508539,32.3969474 69.2721475,32.417227 69.2939481,32.436973 C69.1631444,32.548511 69.0333547,32.6616501 68.8964671,32.763582 C68.8361351,32.807877 68.7793521,32.8575088 68.7174992,32.9002028 Z M70.7079464,30.8893158 C70.7003416,30.9015904 70.6902017,30.9117302 70.6820899,30.9240047 C70.4564788,31.2506137 70.1989273,31.5548084 69.9246451,31.8456612 C69.8901697,31.8819511 69.8562013,31.9193084 69.8207119,31.9550646 C69.7918134,31.9283808 69.759366,31.9086349 69.7304675,31.8819511 C69.4577063,31.635927 69.1768332,31.4032447 68.8817643,31.1993809 C68.8640196,31.1871064 68.844247,31.1775003 68.8265023,31.1646921 C68.5446152,30.9731028 68.2510673,30.8055289 67.9514356,30.6534315 C67.9103693,30.6331519 67.872852,30.6037998 67.8322927,30.5835201 L68.6779539,28.4851105 L69.3421123,28.7818337 L71.3721048,29.689081 C71.3528392,29.7312413 71.3335735,29.772868 71.3138008,29.8144946 C71.1358469,30.1886007 70.9391344,30.5514996 70.7079464,30.8893158 Z M74.0606788,26.1913758 C74.224437,26.1641584 74.3892091,26.1438787 74.5519533,26.1070552 C74.9438574,27.481268 74.9063401,28.9392678 74.4459921,30.2798591 L72.4418561,29.3848863 L72.2801259,29.3123065 C72.3247412,29.1874266 72.3592166,29.0593446 72.3977479,28.93233 C72.4246184,28.846942 72.4535169,28.7626214 72.4773455,28.6772334 C72.5539012,28.3997225 72.620317,28.1195432 72.6694951,27.8356281 C72.6725371,27.8206852 72.6730441,27.8052087 72.675579,27.7907994 C72.7212082,27.5202263 72.7526417,27.2469847 72.7739353,26.9721422 C72.7815402,26.8766144 72.7830612,26.7805529 72.7871171,26.6855588 C72.793201,26.5590778 72.8043548,26.4341979 72.8048618,26.3071833 C73.1278151,26.3066496 73.4487405,26.2815669 73.7686519,26.2415413 C73.8665012,26.2287331 73.9628295,26.2073861 74.0606788,26.1913758 Z M71.6793414,23.584374 C71.705705,23.6617569 71.7366314,23.7380724 71.759953,23.8170562 C71.8552674,24.1329918 71.932837,24.4563988 71.990127,24.7835415 C72.0033088,24.8603907 72.0093927,24.9383072 72.0210535,25.01569 C72.046403,25.1902017 72.0590778,25.3668481 72.0737806,25.5434945 C72.0428541,25.5397588 72.0109137,25.5381578 71.9799872,25.534422 C71.6762995,25.5013342 71.3756538,25.4543708 71.0805849,25.3839257 C71.0461095,25.3759206 71.0131551,25.3641797 70.9791867,25.3551073 C70.7089604,25.2857295 70.443297,25.1987405 70.1811826,25.0984096 C70.1416373,25.0834668 70.102092,25.0674565 70.0625467,25.0514463 L71.1485217,22.3590565 C71.188067,22.4343046 71.2336962,22.5058171 71.2707066,22.5821326 C71.3173498,22.678194 71.362472,22.7742555 71.4060732,22.871918 C71.5084854,23.105134 71.5987299,23.3426193 71.6793414,23.584374 Z M65.006831,33.5710321 C64.0024816,32.8745864 63.2156313,31.8926246 62.719794,30.7132031 C63.2120824,30.600064 63.7119757,30.5360231 64.2194738,30.5242822 C64.2412744,30.7959227 64.2757498,31.0654285 64.321379,31.332266 C64.3289839,31.3754936 64.3401377,31.417654 64.3482495,31.4608816 C64.4065535,31.7720141 64.4820952,32.0783435 64.5713256,32.3793361 C64.5961682,32.4647241 64.6205038,32.548511 64.6483883,32.632298 C64.7523215,32.9514356 64.8679155,33.2663038 65.006831,33.5710321 Z M71.988606,22.4609884 C73.0112072,23.1771801 73.820872,24.2007685 74.3085975,25.403138 C74.0743676,25.4538371 73.8406447,25.5104067 73.6033728,25.5376241 C73.5983029,25.5386914 73.593233,25.5392251 73.5886701,25.5402925 C73.3204718,25.5701782 73.0497385,25.5680435 72.7795122,25.5680435 C72.7592326,25.2883979 72.7247572,25.010887 72.679128,24.7360444 C72.6730441,24.6986872 72.6629043,24.6623973 72.6563134,24.6255737 C72.5990234,24.3037677 72.5209467,23.9867649 72.4296883,23.6740314 C72.4058598,23.5907781 72.3815242,23.5064575 72.3546536,23.4237379 C72.2491995,23.0971288 72.1310706,22.7737218 71.988606,22.4609884 Z M68.499493,18 C63.2617675,18 59,22.4855374 59,28 C59,33.5133952 63.2617675,38 68.499493,38 C73.7382325,38 78,33.5133952 78,28 C78,22.4855374 73.7382325,18 68.499493,18 Z" id="Fill-1"></path>
                        <polygon id="Fill-2" points="28 37 34 37 34 1 28 1"></polygon>
                        <polyline id="Fill-3" points="40 1 62 1 62 6.59282925 46.1628394 6.59282925 46.1628394 16.4575845 57.623213 16.4575845 57.623213 21.8473222 46.1628394 21.8473222 46.1628394 37 40 37 40 1"></polyline>
                        <path d="M108.441959,27.3038661 C107.544956,28.529911 106.366716,29.5156995 104.906184,30.2617586 C103.444069,31.006764 101.768784,31.3803204 99.8761081,31.3803204 C98.0488603,31.3803204 96.4057619,31.0657743 94.9447024,30.4351015 C93.4836429,29.8060093 92.2310046,28.9187469 91.1852047,27.774895 C90.1388772,26.6305162 89.3342127,25.2632681 88.7691009,23.6720968 C88.2045167,22.0803987 87.9222246,20.3237878 87.9222246,18.4006835 C87.9222246,16.5766323 88.2134867,14.8858811 88.794428,13.3279032 C89.3753694,11.7699252 90.2053609,10.4111072 91.2844027,9.2493414 C92.3629168,8.08968316 93.6503799,7.17818441 95.1441537,6.51431826 C96.638455,5.85203275 98.2984382,5.52009968 100.124631,5.52009968 C101.551393,5.52009968 103.01298,5.8104094 104.507282,6.39050196 C106.001583,6.97059452 107.213592,7.8910502 108.143309,9.15028836 L110.674441,3.19498754 C110.577353,3.12491278 110.485015,3.050623 110.384762,2.98370951 C109.388033,2.32142399 108.325348,1.76504094 107.196707,1.31772161 C106.068067,0.8698754 104.888772,0.539522962 103.660405,0.322976148 C102.432566,0.108009968 101.252744,0 100.124631,0 C97.4019629,0 94.877691,0.431512994 92.554981,1.29295835 C90.2296328,2.15493058 88.2134867,3.38097544 86.5028493,4.97320043 C84.7927396,6.56437166 83.4477628,8.49537914 82.4695019,10.7667497 C81.4896581,13.0375934 81,15.5824137 81,18.4006835 C81,21.1530936 81.4648586,23.6641937 82.3945758,25.9339836 C83.3237653,28.2058811 84.6186154,30.161125 86.2791262,31.8023496 C87.9391093,33.444628 89.9225412,34.7212531 92.2310046,35.632225 C94.5384128,36.5442506 97.0690165,37 99.8259814,37 C102.847298,37 105.48607,36.4599502 107.744407,35.3835386 C108.926868,34.8197793 110.008548,34.1274617 111,33.3218654 L108.441959,27.3038661" id="Fill-4"></path>
                        <path d="M138.44175,27.3465433 C137.548317,28.5520399 136.38173,29.5251833 134.937761,30.2617586 C133.473715,31.006764 131.795689,31.3803204 129.901041,31.3803204 C128.07138,31.3803204 126.426111,31.0657743 124.963121,30.4351015 C123.499604,29.8060093 122.245839,28.9187469 121.198658,27.774895 C120.150948,26.6305162 119.344693,25.2632681 118.779363,23.6720968 C118.214033,22.0803987 117.931368,20.3237878 117.931368,18.4006835 C117.931368,16.5766323 118.223015,14.8858811 118.804195,13.3279032 C119.385904,11.7699252 120.218048,10.4111072 121.297987,9.2493414 C122.377926,8.08968316 123.667089,7.17818441 125.162308,6.51431826 C126.658583,5.85203275 128.321287,5.52009968 130.15042,5.52009968 C131.578539,5.52009968 133.042056,5.8104094 134.538331,6.39050196 C136.034078,6.97059452 137.246632,7.88999644 138.177577,9.14870773 L140.712052,3.19393378 C140.615364,3.1243859 140.523432,3.050623 140.423046,2.98370951 C139.42553,2.32142399 138.360913,1.76504094 137.23131,1.31772161 C136.101178,0.8698754 134.920325,0.539522962 133.690865,0.322976148 C132.460348,0.108009968 131.279495,0 130.15042,0 C127.423628,0 124.89655,0.431512994 122.569715,1.29295835 C120.241296,2.15493058 118.223015,3.38097544 116.510118,4.97320043 C114.797221,6.56437166 113.451524,8.49537914 112.470915,10.7667497 C111.490305,13.0375934 111,15.5824137 111,18.4006835 C111,21.1530936 111.465473,23.6641937 112.395889,25.9339836 C113.326835,28.2058811 114.623395,30.161125 116.286099,31.8023496 C117.948803,33.444628 119.934327,34.7212531 122.245839,35.632225 C124.555767,36.5442506 127.090241,37 129.850848,37 C132.875627,37 135.518941,36.4599502 137.779733,35.3835386 C138.947905,34.8271556 140.018334,34.1485368 141,33.3571663 L138.44175,27.3465433" id="Fill-5"></path>
                        <path d="M22.0465274,21.4344464 C21.4103605,20.2732075 20.5942833,19.313236 19.5998512,18.5492631 C18.6038638,17.7868708 17.5114402,17.1741118 16.3205068,16.7094055 C15.1295733,16.2457529 13.9790807,15.8311 12.8705845,15.4659737 C11.8917067,15.1677608 10.9942292,14.869021 10.1786705,14.571335 C9.36311174,14.2720684 8.66939429,13.9248558 8.09855504,13.5265361 C7.52823426,13.1282164 7.07871779,12.6482307 6.752598,12.0844713 C6.42647821,11.5212389 6.26367755,10.8410395 6.26367755,10.044927 C6.26367755,9.18348167 6.45136494,8.44690637 6.8267397,7.83256675 C7.20055905,7.218754 7.68273934,6.72190815 8.27068822,6.34044856 C8.85760014,5.95951584 9.50983972,5.67816305 10.2279254,5.49533642 C10.9449742,5.31356355 11.6630599,5.22188679 12.3811456,5.22188679 C13.5876333,5.22188679 14.7868623,5.51219651 15.9777958,6.09228907 C17.1687293,6.67185475 18.0900566,7.39367747 18.7428146,8.25512282 L18.745407,8.25196155 L21.1433466,2.51215379 C20.1955772,1.87147027 19.1664074,1.33879672 18.0330245,0.944692061 C16.2225153,0.315599858 13.9396767,0 12.177904,0 C10.6121142,0 9.5668718,0.207063012 8.05033701,0.621189035 C6.53276527,1.03636881 5.17799418,1.6659879 3.98757918,2.51162691 C2.79612723,3.35621218 1.83487748,4.42630117 1.1007191,5.71873265 C0.367079191,7.01169099 0,8.55386258 0,10.3436668 C0,12.0028053 0.25975519,13.3863866 0.782894885,14.4970452 C1.30447916,15.6077038 1.98160546,16.5439658 2.81375533,17.3058313 C3.64590519,18.0692773 4.58278668,18.6820363 5.62751065,19.1462157 C6.67119767,19.610922 7.71540317,20.0087148 8.75960867,20.340121 C9.83595951,20.7052474 10.8635739,21.05246 11.8424517,21.3838661 C12.8213295,21.7157992 13.6695521,22.105162 14.3876378,22.5530082 C15.105205,23.0003275 15.6760443,23.5314204 16.0996371,24.1441794 C16.5232299,24.7579922 16.7363224,25.5282876 16.7363224,26.4566465 C16.7363224,27.4181986 16.5481166,28.2222143 16.1732603,28.8686935 C15.798404,29.5156995 15.3089651,30.0541687 14.705462,30.4851549 C14.100922,30.916141 13.4243141,31.2233108 12.6746016,31.4050837 C11.9233336,31.5873834 11.1896936,31.6785333 10.4726449,31.6785333 C9.10231961,31.6785333 7.70762607,31.330267 6.28804581,30.6347882 C4.86846554,29.9377287 3.73508262,28.9935635 2.88686008,27.7996582 L2.88426771,27.8022926 L0.381596447,33.7928943 C1.37965781,34.5742542 2.49696806,35.2323247 3.76774644,35.7318049 C5.92044814,36.5769171 8.12292329,37 10.3746534,37 C12.07058,37 13.6856248,36.76712 15.2197877,36.3034674 C16.7518766,35.8398149 18.0900566,35.1432823 19.2322536,34.2149235 C20.3739321,33.2865646 21.2874822,32.1184763 21.9729041,30.7085511 C22.6572891,29.3002065 23,27.6505518 23,25.7606408 C23,24.0372232 22.6821758,22.5951584 22.0465274,21.4344464" id="Fill-6"></path>
                    </g>
                </g>
            </g>
        </g>
    </g>
</svg>